PathFileType	4	(X/Y/Z)	D:\TRACE\v60_Jaco2_6-2-23\JustBodyDRS_Motion1_2-v60.trc
DataRate	CameraRate	NumFrames	NumMarkers	Units	OrigDataRate	OrigDataStartFrame	OrigNumFrames
100.00	100.00	      38	9	mm	100.00	1	      6954
Frame#	Time	front left toe			Front right toe			aft left toe			aft right toe			Arm			FL body			FR body			AL Body			AR Body			
		X1	Y1	Z1	X2	Y2	Z2	X3	Y3	Z3	X4	Y4	Z4	X5	Y5	Z5	X6	Y6	Z6	X7	Y7	Z7	X8	Y8	Z8	X9	Y9	Z9	

1	0.000	-206.69386	20.02004	-174.07045	202.47260	17.75792	-158.52644	-223.77702	18.25556	469.16550	181.52203	18.98837	444.43433	-106.20251	1167.56116	-368.26389	-75.27258	578.94702	-304.22910	85.11228	577.96906	-300.90369	-95.07899	584.89990	642.64752	61.01128	577.32440	646.55475	
2	0.010	-206.71184	20.00080	-174.04782	202.44080	17.74540	-158.56216	-223.79103	18.26031	469.15393	181.48621	18.96555	444.41238	-105.80705	1169.63220	-365.68326	-75.29991	578.90448	-304.22061	85.15233	578.03760	-300.89365	-95.03578	584.91193	642.63531	61.01352	577.33026	646.53412	
3	0.020	-206.68915	20.01622	-174.03471	202.48698	17.77896	-158.50882	-223.17052	17.83100	469.27167	181.44987	18.95367	444.43637	-105.41222	1171.69910	-363.10797	-75.28225	578.88757	-304.24759	85.19407	577.98376	-300.91342	-95.01614	584.88934	642.62848	61.01860	577.31805	646.54321	
4	0.030	-206.68335	20.00647	-174.00935	202.43550	17.76188	-158.54738	-223.14958	17.83331	469.28815	181.45502	18.91169	444.43271	-105.01862	1173.75732	-360.54349	-75.22500	578.91870	-304.23749	85.26603	577.98645	-300.88483	-94.99300	584.89331	642.62933	61.03991	577.32489	646.54565	
5	0.040	-206.71420	20.03346	-174.01915	202.41672	17.75917	-158.51649	-223.78381	18.24892	469.15967	181.42426	18.94551	444.47360	-104.62688	1175.80249	-357.99518	-75.28693	578.92889	-304.21075	85.18661	577.99908	-300.91159	-94.99331	584.90491	642.62769	61.66055	577.06915	645.30786	
6	0.050	-206.68465	20.01303	-174.03540	202.47806	17.73780	-158.51794	-223.16200	17.82343	469.27618	181.51839	18.91827	444.39737	-104.23761	1177.83020	-355.46838	-75.28423	578.91644	-304.24500	85.18666	577.98035	-300.93900	-94.99888	584.88373	642.63354	61.70098	577.03662	645.29480	
7	0.060	-206.70113	20.01209	-174.02402	202.44888	17.75430	-158.48880	-223.17191	17.82018	469.27585	181.47403	18.95354	444.44601	-103.85145	1179.83630	-352.96860	-75.26115	578.93549	-304.24600	85.19693	577.97131	-300.87762	-94.95159	584.94275	642.60742	61.72940	577.06317	645.29559	
8	0.070	-206.64996	20.00010	-174.05020	202.44675	17.73223	-158.52150	-223.16162	17.81160	469.26978	181.43919	18.89167	444.41406	-103.46898	1181.81616	-350.50110	-75.22263	578.96027	-304.25232	85.28797	577.97205	-300.90375	-95.05273	584.92255	642.61584	61.73400	577.07050	645.28900	
9	0.080	-206.64493	20.01398	-174.03976	202.43387	17.74711	-158.52167	-223.75589	18.22765	469.18933	181.44176	18.94646	444.42987	-103.09086	1183.76575	-348.07135	-75.24161	578.91479	-304.28781	85.22847	578.00824	-300.97937	-94.99911	584.92474	642.61035	61.70676	577.07861	645.30188	
10	0.090	-206.69691	20.00550	-174.03340	202.39757	17.73321	-158.54062	-223.76251	18.23894	469.18475	181.40512	18.93001	444.45795	-102.71768	1185.68054	-345.68469	-75.18423	578.86475	-304.27640	85.23345	577.96381	-300.96738	-95.02271	584.96246	642.59552	61.73015	577.07166	645.30005	
11	0.100	-206.71062	20.00747	-174.04297	202.45103	17.75143	-158.54286	-223.78432	18.26189	469.16409	181.46596	18.98420	444.42786	-102.35007	1187.55627	-343.34659	-75.19767	578.87927	-304.28662	85.30383	577.97363	-300.95825	-94.97063	584.94763	642.59125	61.71156	577.09912	645.27948	
12	0.110	-206.66621	20.00736	-174.05286	202.47530	17.74228	-158.53775	-223.79631	18.23990	469.14825	181.44659	18.95844	444.43539	-101.98866	1189.38855	-341.06232	-75.18555	578.92896	-304.31573	85.24581	577.96741	-300.97458	-94.97681	584.95752	642.58081	61.78802	577.10138	645.27411	
13	0.120	-206.64995	20.01659	-174.02983	202.45573	17.76457	-158.51936	-223.77838	18.25649	469.17654	181.46431	18.98060	444.42676	-101.63403	1191.17297	-338.83731	-75.18298	578.90100	-304.29266	85.28853	577.95386	-300.98685	-94.27275	585.50677	643.11584	61.73338	577.10864	645.27966	
14	0.130	-206.66992	20.02287	-174.01414	202.47290	17.73555	-158.52477	-223.77638	18.25672	469.17236	181.42781	18.96590	444.41577	-101.28685	1192.90540	-336.67703	-75.13071	578.92480	-304.31894	85.31671	577.94843	-300.99533	-94.62028	585.11926	642.65869	61.75987	577.08972	645.26672	
15	0.140	-206.65596	20.03978	-174.00684	202.42918	17.75073	-158.50818	-223.80132	18.25279	469.16840	181.45766	18.97550	444.44012	-100.94771	1194.58130	-334.58679	-75.13158	578.92871	-304.32001	85.23267	577.95801	-301.03851	-94.88718	585.00299	642.56226	61.71703	577.09332	645.26770	
16	0.150	-206.69482	20.00854	-174.04416	202.48811	17.75367	-158.48502	-223.78795	18.25658	469.17139	181.48843	18.99994	444.42975	-100.61722	1196.19641	-332.57196	-75.13465	578.88776	-304.34509	85.38424	577.94415	-301.00491	-94.69167	585.11597	642.62006	61.76137	577.09210	645.26202	
17	0.160	-206.66989	20.02527	-174.02548	202.44598	17.77805	-158.55122	-223.78632	18.26695	469.18533	181.53775	19.08299	444.44675	-100.29603	1197.74634	-330.63800	-75.12902	578.88806	-304.32748	85.34180	577.92767	-301.00854	-94.28708	585.51636	643.10052	61.78019	577.10052	645.25708	
18	0.170	-206.66557	20.03091	-174.06416	202.50224	17.76153	-158.53719	-223.81013	18.27016	469.14798	181.48969	19.00537	444.40848	-99.98473	1199.22681	-328.79028	-75.13194	578.87988	-304.32455	85.38685	577.95868	-301.04266	-94.70378	585.12390	642.60809	61.82850	577.12189	645.23438	
19	0.180	-206.71350	20.01886	-174.02397	202.42972	17.74335	-158.51904	-223.85127	18.28633	469.15604	181.47803	18.95152	444.41449	-99.68395	1200.63342	-327.03418	-75.08156	578.89600	-304.34738	85.33818	577.92517	-301.03247	-94.98671	585.00415	642.54413	61.74236	577.11438	645.24133	
20	0.190	-206.66812	20.02184	-174.03810	202.43884	17.72481	-158.51820	-223.77812	18.26852	469.17520	181.52104	18.98919	444.46576	-99.39431	1201.96179	-325.37503	-75.06698	578.86121	-304.38199	85.42174	577.93182	-301.04669	-94.85851	584.96918	642.52173	61.78814	577.09430	645.23853	
21	0.200	-206.65924	20.00101	-174.03256	202.40213	17.69748	-158.49779	-223.83824	18.27065	469.17407	181.50136	18.96058	444.42929	-99.11642	1203.20764	-323.81830	-75.09605	578.90405	-304.35620	85.40585	577.91864	-301.08096	-94.20008	585.49115	643.04669	61.78737	577.11859	645.25665	
22	0.210	-206.66342	20.01796	-174.04761	202.45122	17.71797	-158.51393	-223.80534	18.25574	469.15186	181.58575	19.01408	444.44788	-98.85091	1204.36670	-322.36938	-75.07902	578.90662	-304.36365	85.49474	577.92297	-301.05795	-94.17313	585.49573	643.07275	61.91039	577.13562	645.22955	
23	0.220	-206.64946	20.03365	-174.01950	202.42503	17.74020	-158.53958	-223.78758	18.25809	469.16290	181.54839	19.02953	444.47968	-98.59840	1205.43445	-321.03360	-75.11308	578.88104	-304.39795	85.45049	577.89063	-301.05463	-94.83783	585.01935	642.54535	61.84977	577.09814	645.23364	
24	0.230	-206.63156	20.01292	-174.03944	202.47110	17.74290	-158.51952	-223.78917	18.26817	469.16409	181.52901	18.96924	444.43384	-98.35950	1206.40674	-319.81635	-75.03828	578.88043	-304.37708	85.43920	577.89343	-301.06476	-94.62931	585.20825	642.78333	61.88855	577.14197	645.22742	
25	0.240	-206.67738	20.01764	-174.01534	202.43721	17.72686	-158.53487	-223.79718	18.26471	469.16763	181.43115	18.88124	444.42365	-98.13483	1207.27893	-318.72311	-75.01773	578.88245	-304.41095	85.42191	577.89520	-301.09055	-94.66496	585.18286	642.75659	61.85555	577.11365	645.23444	
26	0.250	-206.67618	20.02981	-174.00874	202.42754	17.73180	-158.50648	-223.75241	18.21906	469.18781	181.49043	18.87998	444.44861	-97.92501	1208.04712	-317.75916	-75.03324	578.85626	-304.42334	85.46904	577.87640	-301.08212	-94.24232	585.48047	643.02960	61.83603	577.08533	645.24139	
27	0.260	-206.66835	19.99717	-174.06561	202.46498	17.73788	-158.49362	-223.75215	18.23337	469.17789	181.44539	18.92470	444.46664	-97.73067	1208.70654	-316.92996	-74.98403	578.87561	-304.39063	85.45635	577.84821	-301.12643	-94.10208	585.53528	643.00775	61.88927	577.08923	645.21710	
28	0.270	-206.68138	20.01389	-174.03682	202.46059	17.72354	-158.51295	-223.78700	18.24879	469.16501	181.50900	18.99009	444.45096	-97.55241	1209.25317	-316.24088	-75.02016	578.88440	-304.40744	85.57835	577.82721	-301.06863	-94.15570	585.55768	643.02972	61.93415	577.11591	645.22748	
29	0.280	-206.63525	20.01748	-174.03822	202.44678	17.71514	-158.51471	-223.77098	18.25804	469.16742	181.49898	18.98146	444.43488	-97.39086	1209.68237	-315.69727	-74.98864	578.88702	-304.44296	85.55482	577.83209	-301.10376	-94.09666	585.57080	643.00031	61.99950	577.13538	645.22504	
30	0.290	-206.63303	20.02185	-174.01994	202.45758	17.70494	-158.49213	-223.79630	18.24576	469.15494	181.47900	18.94363	444.41025	-97.24664	1209.99011	-315.30463	-74.95288	578.86444	-304.46396	85.60948	577.86298	-301.09668	-94.12960	585.57257	643.00867	61.96141	577.08826	645.21893	
31	0.300	-206.65842	20.01166	-174.03545	202.46362	17.71364	-158.49271	-223.78348	18.26344	469.16925	181.44582	18.94605	444.44839	-97.12035	1210.17175	-315.06821	-74.88055	578.86206	-304.43759	85.59684	577.88068	-301.09009	-94.14050	585.53046	642.96179	61.96325	577.12927	645.20032	
32	0.310	-206.64655	20.01706	-174.02640	202.48915	17.74512	-158.49818	-223.81963	18.27357	469.15036	181.46500	18.95024	444.42801	-97.01263	1210.22314	-314.99347	-74.92738	578.86090	-304.43240	85.59846	577.87842	-301.08194	-94.09918	585.58679	642.98431	61.91308	577.15607	645.22070	
33	0.320	-206.65860	20.03503	-174.04558	202.47473	17.75481	-158.48991	-223.79785	18.24938	469.15060	181.61530	19.04501	444.46307	-96.94554	1210.18127	-315.03641	-74.89600	578.88849	-304.42834	85.59830	577.86090	-301.10165	-94.53986	585.25067	642.75067	61.95717	577.12988	645.20837	
34	0.330	-206.68806	20.03193	-174.05933	202.45836	17.73648	-158.50789	-223.82567	18.27740	469.14163	181.54016	19.02617	444.42035	-96.98061	1210.18994	-315.02460	-74.89742	578.84058	-304.42477	85.64431	577.88782	-301.06534	-94.03631	585.58844	642.96930	62.00271	577.14050	645.20026	
35	0.340	-206.67030	20.00941	-174.04605	202.44331	17.70457	-158.51639	-223.77231	18.26715	469.17020	181.56616	18.94836	444.42389	-96.94424	1210.18201	-315.03452	-74.91042	578.84833	-304.43280	85.68381	577.84930	-301.08868	-94.58640	585.24347	642.74127	62.04361	577.15509	645.21936	
36	0.350	-206.63953	20.02263	-174.03934	202.45715	17.71072	-158.50591	-223.81758	18.28320	469.16360	181.47226	18.93882	444.40015	-96.96861	1210.16467	-315.03256	-74.84501	578.83759	-304.44235	85.60143	577.82721	-301.10950	-94.00356	585.57568	642.97583	61.98277	577.14490	645.20850	
37	0.360	-206.63750	20.03389	-174.04449	202.46379	17.71481	-158.52623	-223.82242	18.26723	469.14697	181.56590	19.00859	444.43008	-96.94584	1210.14905	-315.05087	-74.86933	578.88129	-304.47751	85.70181	577.81433	-301.09854	-94.04796	585.55927	642.96521	62.02467	577.13477	645.20636	
38	0.370	-206.64944	20.03193	-174.04382	202.46788	17.73762	-158.54489	-223.16621	17.83115	469.27148	181.53999	19.01824	444.45114	-96.93664	1210.19910	-315.03665	-74.88166	578.83807	-304.48865	85.66604	577.84393	-301.11264	-94.08103	585.57813	642.93689	62.02819	577.15259	645.19440	
